<svg width="800" height="400" viewBox="0 0 800 400" xmlns="http://www.w3.org/2000/svg">
  <rect width="800" height="400" fill="#124C30"/>
  <path d="M0 280 Q 400 180 800 280 L 800 400 L 0 400 Z" fill="#00DB72" opacity="0.3"/>
  <path d="M0 300 Q 400 200 800 300 L 800 400 L 0 400 Z" fill="#17D1FF" opacity="0.2"/>
  <circle cx="650" cy="100" r="80" fill="#FFCC00" opacity="0.6"/>
  <g fill="#FFFFFF" opacity="0.8">
    <circle cx="100" cy="80" r="3"/>
    <circle cx="150" cy="120" r="2"/>
    <circle cx="200" cy="60" r="4"/>
    <circle cx="280" cy="90" r="2"/>
    <circle cx="350" cy="60" r="3"/>
    <circle cx="400" cy="120" r="2"/>
    <circle cx="480" cy="70" r="4"/>
    <circle cx="520" cy="100" r="3"/>
    <circle cx="580" cy="80" r="2"/>
    <circle cx="620" cy="110" r="3"/>
    <circle cx="700" cy="60" r="2"/>
    <circle cx="750" cy="90" r="4"/>
  </g>
  <g transform="translate(200, 150)">
    <path d="M0,50 Q25,0 50,50 T100,50 T150,50" stroke="#FFFFFF" stroke-width="3" fill="none"/>
    <path d="M0,70 Q25,20 50,70 T100,70 T150,70" stroke="#FFFFFF" stroke-width="2" fill="none"/>
    <path d="M0,90 Q25,40 50,90 T100,90 T150,90" stroke="#FFFFFF" stroke-width="1" fill="none"/>
  </g>
  <text x="50" y="350" font-family="Arial" font-size="24" fill="#FFFFFF">Amazon Rainforest Conservation</text>
</svg>
