<svg width="800" height="500" viewBox="0 0 800 500" xmlns="http://www.w3.org/2000/svg">
  <rect width="800" height="500" fill="#F5F7FA"/>
  
  <!-- Dashboard Header -->
  <rect x="20" y="20" width="760" height="60" rx="8" fill="#FFFFFF" stroke="#E4E7EB" stroke-width="1"/>
  <circle cx="50" cy="50" r="20" fill="#00DB72"/>
  <text x="80" y="55" font-family="Arial" font-size="18" font-weight="bold" fill="#183140">SolGreen Corporate Dashboard</text>
  
  <!-- Navigation Menu -->
  <rect x="20" y="100" width="200" height="380" rx="8" fill="#FFFFFF" stroke="#E4E7EB" stroke-width="1"/>
  <g fill="#183140" opacity="0.8">
    <rect x="40" y="130" width="160" height="40" rx="4" fill="#00DB72" opacity="0.1"/>
    <rect x="40" y="190" width="160" height="40" rx="4" fill="transparent"/>
    <rect x="40" y="250" width="160" height="40" rx="4" fill="transparent"/>
    <rect x="40" y="310" width="160" height="40" rx="4" fill="transparent"/>
    <rect x="40" y="370" width="160" height="40" rx="4" fill="transparent"/>
  </g>
  
  <!-- Dashboard Content -->
  <rect x="240" y="100" width="540" height="180" rx="8" fill="#FFFFFF" stroke="#E4E7EB" stroke-width="1"/>
  
  <!-- Charts -->
  <g transform="translate(260, 120)">
    <text x="0" y="15" font-family="Arial" font-size="14" font-weight="bold" fill="#183140">Carbon Credits Retired</text>
    <!-- Bar chart -->
    <g transform="translate(20, 30)">
      <rect x="0" y="0" width="40" height="100" fill="#00DB72" opacity="0.7"/>
      <rect x="60" y="20" width="40" height="80" fill="#00DB72" opacity="0.8"/>
      <rect x="120" y="40" width="40" height="60" fill="#00DB72" opacity="0.9"/>
      <rect x="180" y="10" width="40" height="90" fill="#00DB72"/>
      <rect x="240" y="0" width="40" height="100" fill="#00DB72" opacity="0.7"/>
      <!-- X-axis -->
      <line x1="0" y1="110" x2="300" y2="110" stroke="#7B8794" stroke-width="1"/>
      <text x="20" y="130" font-family="Arial" font-size="10" fill="#7B8794">Q1</text>
      <text x="80" y="130" font-family="Arial" font-size="10" fill="#7B8794">Q2</text>
      <text x="140" y="130" font-family="Arial" font-size="10" fill="#7B8794">Q3</text>
      <text x="200" y="130" font-family="Arial" font-size="10" fill="#7B8794">Q4</text>
      <text x="260" y="130" font-family="Arial" font-size="10" fill="#7B8794">Q1</text>
    </g>
  </g>
  
  <!-- Pie chart -->
  <g transform="translate(600, 170)">
    <circle cx="0" cy="0" r="60" fill="transparent" stroke="#E4E7EB" stroke-width="1"/>
    <path d="M 0 0 L 0 -60 A 60 60 0 0 1 52 -30 Z" fill="#00DB72"/>
    <path d="M 0 0 L 52 -30 A 60 60 0 0 1 52 30 Z" fill="#17D1FF"/>
    <path d="M 0 0 L 52 30 A 60 60 0 0 1 0 60 Z" fill="#FFCC00"/>
    <path d="M 0 0 L 0 60 A 60 60 0 0 1 -60 0 Z" fill="#FF6B6B"/>
    <path d="M 0 0 L -60 0 A 60 60 0 0 1 0 -60 Z" fill="#9C6ADE"/>
  </g>
  
  <!-- Stats Cards -->
  <g>
    <rect x="240" y="300" width="165" height="90" rx="8" fill="#FFFFFF" stroke="#E4E7EB" stroke-width="1"/>
    <text x="260" y="330" font-family="Arial" font-size="12" fill="#7B8794">Total Credits</text>
    <text x="260" y="360" font-family="Arial" font-size="24" font-weight="bold" fill="#183140">12,486</text>
    <text x="325" y="360" font-family="Arial" font-size="12" fill="#00DB72">+24%</text>
  </g>
  
  <g>
    <rect x="425" y="300" width="165" height="90" rx="8" fill="#FFFFFF" stroke="#E4E7EB" stroke-width="1"/>
    <text x="445" y="330" font-family="Arial" font-size="12" fill="#7B8794">CO₂ Offset</text>
    <text x="445" y="360" font-family="Arial" font-size="24" font-weight="bold" fill="#183140">1.2M</text>
    <text x="505" y="360" font-family="Arial" font-size="12" fill="#00DB72">tonnes</text>
  </g>
  
  <g>
    <rect x="610" y="300" width="165" height="90" rx="8" fill="#FFFFFF" stroke="#E4E7EB" stroke-width="1"/>
    <text x="630" y="330" font-family="Arial" font-size="12" fill="#7B8794">Cost Savings</text>
    <text x="630" y="360" font-family="Arial" font-size="24" font-weight="bold" fill="#183140">$56K</text>
    <text x="685" y="360" font-family="Arial" font-size="12" fill="#00DB72">+18%</text>
  </g>
  
  <!-- Recent Activity -->
  <rect x="240" y="410" width="540" height="70" rx="8" fill="#FFFFFF" stroke="#E4E7EB" stroke-width="1"/>
  <text x="260" y="435" font-family="Arial" font-size="14" font-weight="bold" fill="#183140">Recent Activity</text>
  <line x1="260" y1="445" x2="760" y2="445" stroke="#E4E7EB" stroke-width="1"/>
  <circle cx="275" cy="460" r="6" fill="#00DB72"/>
  <text x="290" y="465" font-family="Arial" font-size="12" fill="#183140">Retired 500 credits from Amazon Rainforest Project</text>
  <text x="700" y="465" font-family="Arial" font-size="12" fill="#7B8794">Today</text>
</svg>
