<svg width="200" height="100" viewBox="0 0 200 100" xmlns="http://www.w3.org/2000/svg">
  <rect width="200" height="100" fill="#FFFFFF"/>
  <g transform="translate(30, 30)">
    <path d="M20,0 L120,0 C130,0 140,10 130,20 L30,20 C20,20 10,10 20,0 Z" fill="#14F195"/>
    <path d="M20,25 L120,25 C130,25 140,35 130,45 L30,45 C20,45 10,35 20,25 Z" fill="#9945FF"/>
    <path d="M130,50 L30,50 C20,50 10,60 20,70 L120,70 C130,70 140,60 130,50 Z" fill="#00C2FF"/>
  </g>
  <text x="100" y="85" font-family="Arial" font-size="16" font-weight="bold" fill="#000000" text-anchor="middle">Solana</text>
</svg>
