<svg width="800" height="400" viewBox="0 0 800 400" xmlns="http://www.w3.org/2000/svg">
  <rect width="800" height="400" fill="#0A5E9C"/>
  <path d="M0 280 Q 400 180 800 280 L 800 400 L 0 400 Z" fill="#FFCC00" opacity="0.3"/>
  <path d="M0 300 Q 400 200 800 300 L 800 400 L 0 400 Z" fill="#FFCC00" opacity="0.2"/>
  <circle cx="650" cy="100" r="80" fill="#FFCC00" opacity="0.8"/>
  <g fill="#FFFFFF" opacity="0.8">
    <rect x="100" y="100" width="100" height="60" rx="5"/>
    <rect x="210" y="100" width="100" height="60" rx="5"/>
    <rect x="320" y="100" width="100" height="60" rx="5"/>
    <rect x="430" y="100" width="100" height="60" rx="5"/>
  </g>
  <g transform="translate(100, 170)">
    <line x1="0" y1="10" x2="430" y2="10" stroke="#FFFFFF" stroke-width="2"/>
    <g transform="translate(50, 0)">
      <rect x="-5" y="0" width="10" height="20" fill="#FFFFFF"/>
      <rect x="-15" y="20" width="30" height="5" fill="#FFFFFF"/>
    </g>
    <g transform="translate(150, 0)">
      <rect x="-5" y="0" width="10" height="20" fill="#FFFFFF"/>
      <rect x="-15" y="20" width="30" height="5" fill="#FFFFFF"/>
    </g>
    <g transform="translate(250, 0)">
      <rect x="-5" y="0" width="10" height="20" fill="#FFFFFF"/>
      <rect x="-15" y="20" width="30" height="5" fill="#FFFFFF"/>
    </g>
    <g transform="translate(350, 0)">
      <rect x="-5" y="0" width="10" height="20" fill="#FFFFFF"/>
      <rect x="-15" y="20" width="30" height="5" fill="#FFFFFF"/>
    </g>
  </g>
  <text x="50" y="350" font-family="Arial" font-size="24" fill="#FFFFFF">Solar Farm in Kenya</text>
</svg>
